<svg role="img" aria-label="Left arrow" xmlns="http://www.w3.org/2000/svg" viewBox="0 0 24 24"><g clip-path="url(#clip0_308_71)"><path fill-rule="evenodd" clip-rule="evenodd" d="M7.94015 13.06C7.65924 12.7787 7.50146 12.3975 7.50146 12C7.50146 11.6025 7.65924 11.2212 7.94015 10.94L13.5961 5.28199C13.8775 5.00073 14.2591 4.84277 14.657 4.84287C14.854 4.84291 15.0491 4.88176 15.231 4.95719C15.413 5.03262 15.5784 5.14316 15.7176 5.28249C15.8569 5.42182 15.9674 5.58722 16.0427 5.76924C16.1181 5.95127 16.1568 6.14635 16.1568 6.34335C16.1567 6.54035 16.1179 6.73541 16.0424 6.91739C15.967 7.09938 15.8565 7.26472 15.7171 7.40399L11.1221 12L15.7181 16.596C15.8615 16.7343 15.9758 16.8998 16.0545 17.0827C16.1332 17.2657 16.1747 17.4625 16.1765 17.6617C16.1783 17.8608 16.1405 18.0584 16.0651 18.2428C15.9898 18.4271 15.8785 18.5947 15.7377 18.7356C15.597 18.8765 15.4295 18.9879 15.2452 19.0634C15.0609 19.1389 14.8634 19.177 14.6643 19.1754C14.4651 19.1737 14.2682 19.1324 14.0852 19.0539C13.9022 18.9754 13.7366 18.8612 13.5981 18.718L7.93815 13.06H7.94015Z"/></g><defs><clipPath id="clip0_308_71"><rect width="24" height="24" fill="white"/></clipPath></defs></svg>