<svg role="img" aria-label="Calendly" xmlns="http://www.w3.org/2000/svg" viewBox="0 0 24 24"><g clip-path="url(#clip0_305_71)"><path d="M19.6552 14.262C19.9359 14.2627 20.2119 14.284 20.4832 14.326C20.4832 14.331 20.4782 14.336 20.4782 14.34C20.3705 14.6109 20.2431 14.8736 20.0972 15.126L18.8782 17.232C18.3308 18.1829 17.5424 18.9727 16.5924 19.5217C15.6424 20.0707 14.5644 20.3595 13.4672 20.359H11.0352C9.938 20.3587 8.86023 20.0695 7.91022 19.5206C6.96021 18.9717 6.17143 18.1824 5.62319 17.232L4.40519 15.126C3.85627 14.1756 3.56727 13.0975 3.56727 12C3.56727 10.9025 3.85627 9.82436 4.40519 8.874L5.62319 6.768C6.17066 5.81692 6.95926 5.02704 7.90944 4.47803C8.85963 3.92902 9.9378 3.6403 11.0352 3.641H13.4672C14.5642 3.64149 15.6418 3.93072 16.5916 4.47962C17.5414 5.02852 18.33 5.81775 18.8782 6.768L20.0972 8.874C20.2442 9.126 20.3682 9.393 20.4782 9.66C20.4782 9.664 20.4832 9.669 20.4832 9.674C20.2092 9.71617 19.9324 9.73756 19.6552 9.738C17.8392 9.738 17.1542 9.131 16.3642 8.432C15.6002 7.756 14.6532 6.915 12.9242 6.915H11.8952C10.6442 6.915 9.50819 7.37 8.69519 8.193C7.89919 8.998 7.46219 10.097 7.46219 11.292V12.703C7.46219 13.899 7.89919 14.998 8.69519 15.802C9.50819 16.625 10.6442 17.08 11.8952 17.08H12.9292C14.6582 17.08 15.6052 16.239 16.3682 15.563C17.1592 14.86 17.8392 14.257 19.6552 14.262ZM19.6602 11.025C20.0602 11.025 20.4532 10.9883 20.8392 10.915C20.8372 10.9103 20.8365 10.9057 20.8372 10.901C20.7621 10.4843 20.6452 10.0762 20.4882 9.683C21.2056 9.57057 21.8861 9.28992 22.4742 8.864C22.4742 8.86 22.4692 8.851 22.4692 8.846C22.1379 7.76294 21.6352 6.73997 20.9802 5.816C20.3309 4.90259 19.5447 4.09476 18.6492 3.421C16.7967 2.02706 14.5396 1.27633 12.2212 1.283C10.7732 1.283 9.36619 1.563 8.04619 2.124C6.77319 2.667 5.62319 3.439 4.63919 4.423C3.65519 5.407 2.87819 6.552 2.34119 7.83C1.78359 9.15118 1.49725 10.571 1.49919 12.005C1.49919 13.453 1.78019 14.86 2.34119 16.179C2.88319 17.453 3.65519 18.602 4.63919 19.586C5.62319 20.57 6.76819 21.347 8.04619 21.885C9.37019 22.441 10.7732 22.726 12.2212 22.726C14.5612 22.726 16.7822 21.986 18.6492 20.589C19.5458 19.9162 20.3322 19.1078 20.9802 18.193C21.6323 17.2673 22.1348 16.2448 22.4692 15.163C22.4692 15.159 22.4742 15.149 22.4742 15.145C21.8861 14.7191 21.2056 14.4384 20.4882 14.326C20.6492 13.931 20.7642 13.522 20.8372 13.108C20.8422 13.099 20.8422 13.094 20.8422 13.085C21.7114 13.244 22.5333 13.5979 23.2462 14.12C23.9312 14.625 23.7982 15.195 23.6922 15.536C22.1842 20.437 17.6192 24 12.2212 24C5.59619 24 0.221191 18.625 0.221191 12C0.221191 5.375 5.59119 0 12.2212 0C17.6192 0 22.1842 3.563 23.6922 8.464C23.7982 8.805 23.9312 9.379 23.2462 9.885C22.5341 10.4083 21.7118 10.762 20.8422 10.919C20.9702 11.635 20.9702 12.369 20.8422 13.085C20.4525 13.0112 20.0568 12.9744 19.6602 12.975C15.4762 12.975 15.6922 15.798 12.9242 15.798H11.8952C9.99619 15.798 8.74519 14.441 8.74519 12.703V11.292C8.74519 9.554 9.99619 8.198 11.8952 8.198H12.9292C15.6972 8.198 15.4812 11.021 19.6602 11.025Z" fill="black"/></g><defs><clipPath id="clip0_305_71"><rect width="24" height="24" fill="white"/></clipPath></defs></svg>